<svg xmlns="http://www.w3.org/2000/svg" viewBox="0 0 512 512" width="512" height="512">
  <defs>
    <linearGradient id="neonGrad" x1="0%" y1="0%" x2="0%" y2="100%">
      <stop offset="0%" stop-color="#4df0ff" />
      <stop offset="100%" stop-color="#0055ff" />
    </linearGradient>
    
    <filter id="glow" x="-20%" y="-20%" width="140%" height="140%">
      <feGaussianBlur stdDeviation="6" result="blur" />
      <feComposite in="SourceGraphic" in2="blur" operator="over" />
    </filter>
  </defs>
  
  <rect width="512" height="512" rx="115" fill="#161b22" />
  
  <g filter="url(#glow)">
    <path d="M256 90 L110 135 L110 280 C110 390 256 440 256 440 C256 440 402 390 402 280 L402 135 Z" fill="none" stroke="url(#neonGrad)" stroke-width="14" stroke-linejoin="round" />
    
    <path d="M256 120 L135 155 L135 280 C135 365 256 410 256 410 C256 410 377 365 377 280 L377 155 Z" fill="none" stroke="url(#neonGrad)" stroke-width="4" opacity="0.6" />

    <rect x="155" y="280" width="30" height="50" fill="none" stroke="url(#neonGrad)" stroke-width="10" stroke-linejoin="round" />
    <rect x="210" y="210" width="30" height="120" fill="none" stroke="url(#neonGrad)" stroke-width="10" stroke-linejoin="round" />
    <rect x="265" y="140" width="30" height="190" fill="none" stroke="url(#neonGrad)" stroke-width="10" stroke-linejoin="round" />
    
    <line x1="130" y1="345" x2="310" y2="345" stroke="url(#neonGrad)" stroke-width="12" stroke-linecap="round" />

    <ellipse cx="365" cy="275" rx="40" ry="15" fill="#161b22" stroke="url(#neonGrad)" stroke-width="10" />
    <path d="M325 275 v22 a40 15 0 0 0 80 0 v-22" fill="none" stroke="url(#neonGrad)" stroke-width="10" />
    <path d="M325 297 v22 a40 15 0 0 0 80 0 v-22" fill="none" stroke="url(#neonGrad)" stroke-width="10" />
    <path d="M325 319 v22 a40 15 0 0 0 80 0 v-22" fill="none" stroke="url(#neonGrad)" stroke-width="10" />
    
    <text x="365" y="265" font-family="Arial, sans-serif" font-size="46" font-weight="bold" fill="#ffffff" text-anchor="middle" alignment-baseline="middle">$</text>
  </g>
</svg>